<?xml version="1.0" standalone="no"?>
<!DOCTYPE svg PUBLIC "-//W3C//DTD SVG 20010904//EN"
 "http://www.w3.org/TR/2001/REC-SVG-20010904/DTD/svg10.dtd">
<svg version="1.0" xmlns="http://www.w3.org/2000/svg"
 width="144.000000pt" height="144.000000pt" viewBox="0 0 144.000000 144.000000"
 preserveAspectRatio="xMidYMid meet">
<metadata>
Created by potrace 1.11, written by Peter Selinger 2001-2013
</metadata>
<g transform="translate(0.000000,144.000000) scale(0.100000,-0.100000)"
fill="#000000" stroke="none">
<path d="M614 1265 c-112 -35 -197 -109 -248 -215 -26 -56 -30 -76 -31 -150 0
-103 13 -151 63 -224 161 -238 513 -228 658 20 114 194 33 450 -173 546 -52
25 -79 31 -146 33 -46 2 -100 -3 -123 -10z m183 -176 c74 -23 135 -114 135
-198 -1 -60 -20 -107 -60 -147 -50 -50 -96 -67 -167 -61 -156 12 -243 164
-174 303 50 99 152 139 266 103z"/>
<path d="M330 250 l0 -80 390 0 390 0 0 80 0 80 -390 0 -390 0 0 -80z"/>
</g>
</svg>
